<svg width="18" height="20" viewBox="0 0 18 20" fill="none" xmlns="http://www.w3.org/2000/svg">
<path d="M1 16.4161V8.85709C1 7.65736 1.53851 6.52098 2.46705 5.76126L7.73352 1.45233C8.47026 0.849549 9.52974 0.849549 10.2665 1.45233L15.533 5.76126C16.4615 6.52098 17 7.65736 17 8.85709V16.4161C17 17.5207 16.1046 18.4161 15 18.4161H13H12H6H5H3C1.89543 18.4161 1 17.5207 1 16.4161Z" fill="none"/>
<path d="M6 18.4161V11.4161C6 10.8638 6.44772 10.4161 7 10.4161H11C11.5523 10.4161 12 10.8638 12 11.4161V18.4161M1 16.4161V8.85709C1 7.65736 1.53851 6.52098 2.46705 5.76126L7.73352 1.45233C8.47026 0.849549 9.52974 0.849549 10.2665 1.45233L15.533 5.76126C16.4615 6.52098 17 7.65736 17 8.85709V16.4161C17 17.5207 16.1046 18.4161 15 18.4161H13H5H3C1.89543 18.4161 1 17.5207 1 16.4161Z" stroke="white" stroke-width="2" stroke-linecap="round"/>
</svg>
